<?xml version="1.0" standalone="no"?>
<!DOCTYPE svg PUBLIC "-//W3C//DTD SVG 20010904//EN"
 "http://www.w3.org/TR/2001/REC-SVG-20010904/DTD/svg10.dtd">
<svg version="1.0" xmlns="http://www.w3.org/2000/svg"
 width="288.000000pt" height="294.000000pt" viewBox="0 0 288.000000 294.000000"
 preserveAspectRatio="xMidYMid meet">

<g transform="translate(0.000000,294.000000) scale(0.100000,-0.100000)"
fill="#000000" stroke="none">
<path d="M641 2704 c-87 -23 -167 -72 -231 -141 -33 -35 -60 -70 -60 -78 0
-19 73 -72 116 -84 18 -5 274 -60 568 -123 294 -62 529 -116 523 -119 -7 -3
-50 -14 -97 -24 -47 -9 -97 -23 -111 -31 -62 -31 -107 -122 -94 -187 17 -79
94 -146 170 -147 36 0 1098 225 1138 241 64 26 116 124 102 192 -17 80 -94
146 -171 147 -16 0 -92 -13 -167 -30 -76 -16 -140 -30 -142 -30 -3 0 -5 22 -5
49 0 53 -17 101 -50 144 -46 58 -88 72 -484 156 l-379 81 -286 -1 c-217 0
-299 -4 -340 -15z"/>
<path d="M647 1816 c-76 -28 -117 -88 -117 -171 0 -78 51 -144 128 -165 20 -5
172 -23 337 -40 165 -17 309 -32 321 -33 20 -3 20 -3 2 32 -35 68 -18 160 38
213 116 108 304 26 304 -131 0 -48 -14 -89 -42 -118 -16 -18 -18 -23 -7 -27 8
-2 105 -13 215 -25 221 -22 250 -20 305 26 40 34 59 79 59 138 0 78 -51 143
-128 165 -20 5 -320 39 -667 75 -346 36 -648 68 -670 70 -22 3 -57 -1 -78 -9z"/>
<path d="M1805 1279 c-198 -21 -377 -43 -398 -49 -48 -14 -112 -71 -140 -124
-33 -63 -30 -157 6 -219 16 -26 46 -61 67 -76 76 -55 90 -55 518 -11 213 22
402 46 421 52 44 14 107 71 134 122 33 63 30 157 -6 218 -34 58 -81 95 -143
114 -58 17 -28 19 -459 -27z"/>
<path d="M883 669 c-18 -5 -48 -25 -68 -44 -81 -81 -65 -216 33 -277 l37 -23
595 0 595 0 37 23 c112 70 112 234 0 304 l-37 23 -580 2 c-344 1 -593 -2 -612
-8z"/>
</g>
</svg>
